<svg xmlns="http://www.w3.org/2000/svg" width="20in" height="20in" viewBox="0 0 1440 1440"><defs><style>.a{fill:#c1b2b2;}.b{fill:#fff;}</style></defs><title>question-mark</title><rect class="a" width="1440" height="1440"/><path class="b" d="M722.017,225.7754c63.5691.3465,123.7988,12.3025,179.73,42.0858,47.5726,25.3325,87.0747,59.8736,111.0587,108.658,38.863,79.0481,38.5241,157.6013-10.5186,232.8684-22.51,34.5473-54.6176,59.5074-88.9107,81.6711-21.01,13.5791-42.7353,26.1819-62.8814,40.94-37.2227,27.2675-55.3933,65.4474-59.0327,110.9146-1.0645,13.2982-.61,26.7691-2.414,39.9469-5.2659,38.4715-39.2792,67.2392-78.0561,68.0456-24.9064.518-47.073-5.3316-65.1684-23.1212-14.6724-14.4244-23.38-31.9914-23.9364-52.5809-1.1363-42.0267,2.8475-83.5006,16.4061-123.6357,14.1941-42.0168,39.3846-76.4591,73.78-103.91,20.3675-16.2554,42.1971-30.67,63.2147-46.1224,17.5033-12.8688,33.8914-26.9986,46.2783-45.1065,31.4169-45.9265,20.13-109.1986-25.609-144.2258-49.4511-37.87-124.32-34.3646-171.0874,7.8311-14.0182,12.6478-24.9191,27.5671-34.8621,43.5215-23.963,38.4506-58.7284,61.07-103.8838,64.9586-61.4923,5.2957-105.3213-60.4082-78.9307-117.5332C433.8748,353.2266,475.1216,308.368,529.781,275.963,589.2115,240.7294,654.1065,226.18,722.017,225.7754Z"/><path class="b" d="M710.8226,1031.7837c53.2695.0291,91.08,36.1743,93.1516,89.0521,1.9628,50.11-34.7828,89.6759-86.5,93.1389-41.689,2.7917-77.8152-17.9882-92.9066-53.44-20.1653-47.3709.3015-101.3925,45.9505-121.0139A97.7532,97.7532,0,0,1,710.8226,1031.7837Z"/></svg>